<svg viewBox="488.3018 408.053 242.2301 117.2575" width="5000" height="2420.374263974626" xmlns="http://www.w3.org/2000/svg" xmlns:xlink="http://www.w3.org/1999/xlink" preserveAspectRatio="none"><defs></defs><style>.aD6z1nYkhcolor {fill:#0B0257;fill-opacity:1;}.aLgOaV3zRcolors-0 {fill:#DDA012;fill-opacity:1;}.icon3-str {stroke:#F55139;stroke-opacity:1;}</style><g opacity="1" transform="rotate(0 571.0002 408.053)">
<svg width="151.0149" height="117.2575" x="571.0002" y="408.053" version="1.1" preserveAspectRatio="none" viewBox="7.279001712799072 20.01900100708008 84.05500030517578 65.26564025878906">
  <g transform="matrix(1 0 0 1 0 0)" class="aLgOaV3zRcolors-0"><path fill-rule="evenodd" clip-rule="evenodd" d="M44.752,71.904c-5.748,1.132-10.183,2.443-13.564,3.701L31.815,74  c-0.713,0.771-1.31,1.46-1.808,2.058c-0.611,0.242-1.18,0.48-1.714,0.715c-0.003-0.112-0.006-0.216-0.01-0.333l1.125-2.902  c2.92-9.49,10.555-16.674,13.659-19.291l-1.479,2.76c0,0-0.715,1.016-0.561,0.928c0.154-0.086,0.519,0.318,0.519,0.318l-1.115,0.426  l0.39,0.93l-0.976,0.555l-0.343,1.072l-0.085,0.93c2.89-1.045,4.205-3.066,4.784-4.961l-0.038,0.52l-0.48,0.951l-0.136,0.959  l0.657-0.037l-0.085,0.932c0,0-0.692,0.457-0.816,0.596c-0.125,0.139,0.236,1.02,0.236,1.02l1.309-0.807l0.625-0.693l1.063-1.955  l0.224,0.756c0,0,0.462-0.262,0.617-0.35c0.154-0.088,0.872-0.02,1.025-0.104c0.153-0.088-0.45,0.523-0.45,0.523l-0.508,0.424  l-0.165,0.904l0.378,0.67l0.93-0.393c0.113,2.717,0.947,1.436,0.947,1.436c0.752-1.307,0.379-2.928,0.379-2.928  c-0.022-0.912-0.27-1.754-0.646-2.518c0.12-0.037,0.239-0.104,0.323-0.217c0.272-0.355-0.346-1.09-0.125-1.42  c0.222-0.33,0.652-0.164,0.951,0.006s0.621,0.734,0.947,0.957c0.329,0.223,0.48-0.475,0.48-0.475l0.112-0.4l1.369,0.986  c-1.023-2.051-2.61-3.08-4.155-3.582c0.18,0.035,0.338,0.065,0.41,0.071c0.213,0.017,0.936,0.217,0.936,0.217  s0.771-0.437,0.977-0.552s0.799,0.094,1.142,0.102c0.346,0.011,1.301-0.527,1.438-0.335c0.623,0.867,2.275-1.015,2.275-1.015  s-1.913-0.75-2.001-0.903s-0.807,0.252-1.158,0.11c-0.351-0.14-1.155-0.362-1.155-0.362l-1.289,0.118l0.546-0.716l-1.427-0.008  l-2.097,1.455l-0.036,0.022c0.129-0.105,0.225-0.185,0.266-0.22c0.229-0.195,1.119-1.375,1.273-1.462  c0.153-0.088,0.56-0.928,0.56-0.928l0.831-1.894l0.5-1.635l-1.043,0.315l-1.41,0.864l-0.464,0.736l-0.532,0.979l-1.08,0.609  l-0.044,1.246l-0.302,0.313c0.048-1.295-0.068-2.41-0.068-2.41l-1.917-2.917l-1.923-1.964l1.023,1.932l-1.658-0.895l0.631,0.999  l2.209,1.872c0,0-0.438-0.296-0.819-0.488c-0.378-0.192-0.729-0.332-0.729-0.332l-0.616,0.349c0,0,0.491,0.873,0.682,0.968  c0.191,0.096,0.524,0.45,0.913,0.774c0.385,0.324-0.177,0.167-0.177,0.167l-0.514,0.288l0.531,0.582l0.94,0.826L43.93,49.99  l0.036,0.165c-0.615-1.463-1.99-3.219-5.051-3.608c-0.112-0.017-0.225-0.028-0.341-0.039c-5.788-0.527,0.165,1.128,0.165,1.128  l-1.918-0.274c0,0-1.113-0.047-1.509-0.03c-0.396,0.022-2.705,0.851-2.705,0.851s-0.099,0.667,0.193,0.705  c0.293,0.039,1.29-0.118,1.29-0.118l1.245,0.044l-0.769,0.434c0,0,1.579-0.08,1.895-0.121c0.317-0.041,1.73-0.299,1.398-0.044  c-0.331,0.255-1.321,1.018-1.321,1.018l1.478-0.022c0,0,3.993,0.785,5.092,1.375l-0.587-0.121l-0.675-0.23l-0.533-0.107  c0,0-0.686-0.016-0.986-0.187c-0.3-0.17-0.586-0.077-0.586-0.077l-0.876-0.112c0,0,0.434,0.768,0.623,0.867  c0.191,0.094,0.475,0.476,0.475,0.476l-0.937-0.217l-1.018,0.235c0,0-0.592-0.208-0.091,0.323c0.207,0.217,0.296,0.313,0.336,0.352  l-0.542,0.238l-0.619,0.35l-0.815,0.598l-0.398,0.496c0,0,0.117,0.203,0.352,0.141c0.234-0.066,0.41,0.244,1.083-0.003  c0.676-0.244,0.617-0.349,1.337-0.755c0.719-0.406,0.402,0.113,0.402,0.113l-0.554,0.582c0,0,0.131,0.469,0.319,0.564  c0.191,0.096,0.55-0.107,0.55-0.107l0.229-0.194l0.427-0.444c0,0,0.565-0.318,0.851-0.414l0.146,0.258l0.076,0.135  C34.097,59.646,28.205,71.5,28.205,71.5l-0.086,0.174c-0.321-8.422-0.957-20.91-2.06-27.529l0.202,0.317  c0,0,0.833,1.761,0.833,1.482c0-0.278,0.833-0.462,0.833-0.462l-0.278,1.853l1.574,0.184v1.759l1.204,1.298l1.203,0.832  c0.8-4.756-0.946-8.11-3.087-10.36l0.68,0.454l0.926,1.388l1.203,0.925l0.463-0.925l1.204,0.833c0,0,0.093,1.296,0.185,1.574  c0.093,0.278,1.574,0.464,1.574,0.464l-0.092-2.407l-0.464-1.39L32.371,39l1.204,0.277c0,0,0-0.833,0-1.11s0.647-1.204,0.647-1.482  s0.371,1.019,0.371,1.019l0.185,1.019l1.111,0.926h1.205l0.184-1.574c3.798,1.945,2.687-0.185,2.687-0.185  c-1.205-2.038-3.705-2.779-3.705-2.779c-1.262-0.671-2.605-0.981-3.937-1.06c0.042-0.195,0.042-0.404-0.044-0.606  c-0.278-0.648-1.759-0.371-2.037-0.926s0.278-1.019,0.74-1.296c0.463-0.278,1.482-0.278,2.038-0.555  c0.556-0.278-0.278-1.019-0.278-1.019l-0.463-0.463l2.408-1.111c-3.593-0.183-6.225,1.188-8.097,2.91  c0.185-0.212,0.348-0.407,0.411-0.502c0.185-0.278,1.019-1.111,1.019-1.111s0-1.389,0-1.76s0.741-1.019,1.019-1.481  c0.278-0.463,0.28-2.182,0.648-2.223c1.667-0.185,0.371-3.889,0.371-3.889s-2.5,2.037-2.778,2.037S27,23.35,26.538,23.72  c-0.463,0.371-1.389,1.297-1.389,1.297l-0.833,1.852l-0.556-1.296l-1.111,1.944l0.37,3.982v0.067  c-0.042-0.256-0.076-0.45-0.092-0.53c-0.093-0.462-1.018-2.592-1.018-2.87s-0.833-1.482-0.833-1.482l-1.945-2.592l-1.852-1.944  l-0.371,1.667L17,26.406l0.648,1.203l0.926,1.482v1.944l1.667,1.019l0.196,0.654c-1.733-1.063-3.345-1.765-3.345-1.765l-5.463,0.37  l-4.167,1.111l3.426,0.093l-2.5,1.574l1.852-0.092l4.26-1.575c0,0-0.74,0.371-1.296,0.741c-0.556,0.37-1.019,0.741-1.019,0.741  v1.111c0,0,1.575,0,1.852-0.185c0.278-0.186,1.019-0.371,1.76-0.648s0.093,0.371,0.093,0.371v0.925l1.204-0.278l1.852-0.647  l-0.463,1.296l0.251,0.077c-2.475-0.287-5.931,0.237-8.826,4.117c-0.106,0.142-0.21,0.287-0.314,0.437  c-5.185,7.501,1.667,0.649,1.667,0.649l-1.852,2.407c0,0-0.926,1.481-1.204,2.037s-0.926,4.351-0.926,4.351s0.833,0.65,1.111,0.28  s0.833-1.852,0.833-1.852l1.018-1.668v1.388c0,0,1.111-2.22,1.296-2.684c0.186-0.464,0.926-2.593,1.019-1.944  c0.093,0.648,0.371,2.592,0.371,2.592L14.037,44c0,0,4.152-4.849,5.805-5.893l-0.619,0.707l-0.833,0.74l-0.555,0.648  c0,0-0.556,0.927-1.019,1.205c-0.463,0.277-0.556,0.741-0.556,0.741l-0.833,1.111c0,0,1.389,0,1.667-0.185  c0.278-0.186,1.018-0.279,1.018-0.279l-1.018,1.111l-0.463,1.575c0,0-0.741,0.647,0.371,0.371c0.456-0.115,0.656-0.165,0.741-0.187  l-0.093,0.927v1.111l0.186,1.572l0.37,0.928c0,0,0.371,0,0.463-0.371c0.093-0.37,0.648-0.37,0.833-1.481  c0.186-1.111,0-1.111,0-2.408c0-1.296,0.463-0.462,0.463-0.462l0.37,1.202c0,0,0.741,0.187,1.019,0  c0.278-0.184,0.278-0.832,0.278-0.832l-0.093-0.464l-0.278-0.926c0,0,0-1.018,0.093-1.48h0.463h0.833v-0.741l-0.74-2.316  l1.203,1.205l-0.556-2.5L22.648,39c0,0,3.551,5.025,2.704,35.926l-0.574-2.225l-0.185,5.465l-1.204-3.148l0.185,4.076l-2.963-1.76  l1.667,2.129h-3.612c0.883,1.443,3.917,1.706,4.712,1.751c21.141,7.224,39.623,2.632,39.623,2.632  c19.185-4.037,28.333,0.203,28.333,0.203C72.764,72.168,56.736,70.346,44.752,71.904z"></path><circle fill-rule="evenodd" clip-rule="evenodd" cx="66.907" cy="48.411" r="8.43"></circle></g>
</svg>
</g><g opacity="1" transform="rotate(0 488.3018 488.6479)">
<svg width="242.2301" height="34.06" x="488.3018" y="488.6479" version="1.1" preserveAspectRatio="none" viewBox="3.6 -28 256.88 36.12">
  <g transform="matrix(1 0 0 1 0 0)" class="aD6z1nYkhcolor"><path id="id-D6z1nYkh19" d="M4.72 1.92Q4.52 1.92 4.30 1.78Q4.08 1.64 3.92 1.40L3.92 1.40Q3.60 1.16 3.60 0.68L3.60 0.68Q3.60-0.24 4.96-4.16L4.96-4.16Q5.24-5.28 5.56-6.32L5.56-6.32Q5.84-7.04 5.84-7.40L5.84-7.40Q5.84-7.72 5.94-8.14Q6.04-8.56 6.04-8.72L6.04-8.72Q6.52-8.72 6.92-10.36L6.92-10.36Q7.08-10.96 7.20-11.38Q7.32-11.80 7.36-12.04L7.36-12.04Q7.44-12.16 7.54-12.40Q7.64-12.64 7.72-12.84L7.72-12.84Q8.04-13.80 8.48-14.68L8.48-14.68Q8.96-16.48 9.62-18.46Q10.28-20.44 10.72-21.40L10.72-21.40L11.20-22.60Q11.24-22.72 11.38-23.06Q11.52-23.40 11.52-23.56Q11.52-23.72 11.40-23.80L11.40-23.80Q11.20-23.92 11.20-24.20L11.20-24.20Q11.20-24.72 12.16-25.56L12.16-25.56Q12.64-26.16 12.98-26.34Q13.32-26.52 13.92-26.52L13.92-26.52L15.20-26.44Q15.68-26.40 17.76-26.40L17.76-26.40Q18.20-26.20 18.80-26L18.80-26Q20-25.60 20-25.44L20-25.44Q20-25.24 20.14-25.16Q20.28-25.08 20.56-25.04L20.56-25.04Q20.96-25.04 21.82-24.14Q22.68-23.24 23.12-22.28L23.12-22.28Q23.40-21.64 23.54-21.22Q23.68-20.80 23.68-20.24L23.68-20.24Q23.68-19.64 23.60-19.28L23.60-19.28Q23.52-18.64 23.40-18.04Q23.28-17.44 23.12-17.28L23.12-17.28Q22.48-16.80 22.48-16.44L22.48-16.44Q22.48-16.12 21.46-14.76Q20.44-13.40 19.52-12.52L19.52-12.52Q18.48-11.32 17.04-10.40L17.04-10.40Q12.32-8.28 10.44-8.36L10.44-8.36Q9.16-8.16 8.88-8.02Q8.60-7.88 8.44-7.36L8.44-7.36Q8.24-6.84 8.06-6.28Q7.88-5.72 7.88-5.56L7.88-5.56Q7.64-5.12 6.82-2.60Q6-0.08 5.72 1.16L5.72 1.16Q5.56 1.68 5.36 1.80Q5.16 1.92 4.72 1.92L4.72 1.92ZM9.68-10.48Q9.76-10.40 10.20-10.40L10.20-10.40Q10.72-10.40 11.58-10.56Q12.44-10.72 13.24-11.04L13.24-11.04Q14.68-11.52 16.44-12.60L16.44-12.60Q16.96-12.96 17.74-13.68Q18.52-14.40 19.24-15.32L19.24-15.32Q19.48-15.72 20.20-17.20L20.20-17.20Q20.52-17.76 20.82-18.64Q21.12-19.52 21.12-20.20L21.12-20.20Q21.12-20.52 21.08-20.68L21.08-20.68Q20.88-21.72 20.02-22.62Q19.16-23.52 18.04-23.84L18.04-23.84Q17.20-24 16.52-24L16.52-24Q15.96-24 15.32-23.88L15.32-23.88Q14.68-23.68 14.38-23.32Q14.08-22.96 13.60-21.80L13.60-21.80Q12.68-20.04 11.92-17.96L11.92-17.96Q11.20-15.28 10.48-13.52Q9.76-11.76 9.64-11.48L9.64-11.48L9.64-11.32Q9.64-11.08 9.60-10.84Q9.56-10.60 9.68-10.48L9.68-10.48Z M21.56-1.44Q21.44-1.68 21.18-1.94Q20.92-2.20 20.92-2.28L20.92-2.28Q20.92-2.72 20.72-2.96L20.72-2.96Q20.64-3.04 20.64-3.32L20.64-3.32Q20.64-3.96 21.26-5.50Q21.88-7.04 22.88-8.84L22.88-8.84Q23.12-9.08 23.50-9.68Q23.88-10.28 24.00-10.36L24.00-10.36Q24.00-10.52 24.12-10.66Q24.24-10.80 24.40-10.80L24.40-10.80L24.40-11.04Q24.40-11.40 25.72-12.78Q27.04-14.16 27.88-14.68L27.88-14.68Q28.88-15.36 29.92-15.36L29.92-15.36Q30.64-15.36 31.16-14.96L31.16-14.96Q31.36-14.72 33-13.24L33-13.24L34.48-11.92L33.76-9.92Q33.40-8.84 33.40-7.96L33.40-7.96Q33.40-6.44 34.28-5.04L34.28-5.04Q34.48-4.60 35.08-4.20Q35.68-3.80 36.28-3.72L36.28-3.72Q37.16-3.56 37.16-2.84L37.16-2.84Q37.16-2.04 36.44-1.88L36.44-1.88Q36.28-1.84 35.96-1.84L35.96-1.84Q33.60-1.84 31.88-5.16L31.88-5.16Q31.72-5.40 31.46-6.04Q31.20-6.68 31.16-6.92L31.16-6.92Q30.92-6.60 30.56-6.16Q30.20-5.72 29.88-5.40L29.88-5.40Q25.52-1.04 23.00-1.04L23.00-1.04Q22.20-1.04 21.56-1.44L21.56-1.44ZM23.00-3.68Q23.00-3.48 23.42-3.56Q23.84-3.64 24.46-3.96Q25.08-4.28 25.72-4.80L25.72-4.80Q29.16-7.76 30.68-9.96L30.68-9.96L31.56-11.40Q31.16-12.24 30.72-12.62Q30.28-13 29.92-13L29.92-13Q29.08-13 27.28-10.90Q25.48-8.80 24.00-5.96L24.00-5.96Q23.64-5.28 23.36-4.58Q23.08-3.88 23.00-3.68L23.00-3.68Z M39.96 0Q39.84 0.04 39.56 0.04L39.56 0.04Q38.92 0.04 38.56-0.60Q38.20-1.24 38.20-2.36L38.20-2.36Q38.20-3.28 38.44-4.48L38.44-4.48Q38.88-5.64 38.88-6.16L38.88-6.16Q39-6.92 39.70-8.90Q40.40-10.88 40.60-11.28L40.60-11.28Q40.76-11.28 40.88-11.54Q41-11.80 41-12.12L41-12.12Q41-12.48 41.14-12.86Q41.28-13.24 41.44-13.40L41.44-13.40Q41.44-13.52 41.54-13.84Q41.64-14.16 41.64-14.28L41.64-14.28Q41.64-14.36 41.74-14.58Q41.84-14.80 41.84-14.92L41.84-14.92Q42.48-16.16 44.08-20.50Q45.68-24.84 45.68-25.32L45.68-25.32Q45.68-25.96 46.32-25.96L46.32-25.96Q46.52-26.16 46.96-26.16L46.96-26.16L47.60-25.52Q47.88-25.24 47.96-24.94Q48.04-24.64 48.04-24.04L48.04-24.04Q48.04-23.44 47.88-23Q47.72-22.56 47.08-21.20L47.08-21.20Q46.96-20.92 46.76-20.54Q46.56-20.16 46.32-19.60L46.32-19.60Q46.24-19.40 45.68-18.16L45.68-18.16Q45.28-17.36 45.28-17.24L45.28-17.24Q45.28-17.12 45.12-16.74Q44.96-16.36 44.84-15.96L44.84-15.96Q44.52-15.32 43.82-13.70Q43.12-12.08 43.12-11.92L43.12-11.92Q43.12-11.48 42.92-11.28L42.92-11.28Q42.80-11.28 42.76-11.10Q42.72-10.92 42.72-10.84L42.72-10.84Q42.72-10.44 42.08-8.72L42.08-8.72L41.72-7.56Q40.96-4.96 40.66-3.76Q40.36-2.56 40.36-1.72L40.36-1.72Q40.36-0.72 40.30-0.44Q40.24-0.16 39.96 0L39.96 0Z M63.56-1.68Q63-1.88 62.50-2.66Q62-3.44 62-5.20L62-5.20L62.04-7.04Q62.04-7.52 61.98-7.72Q61.92-7.92 61.76-7.92L61.76-7.92Q61.24-7.92 59.54-6.56Q57.84-5.20 56.12-3.32L56.12-3.32Q55.92-3.12 55.58-2.74Q55.24-2.36 54.96-2.18Q54.68-2 54.44-2L54.44-2Q54.08-2 53.76-2.28L53.76-2.28L53.32-2.64Q53.04-2.88 53.04-3.20L53.04-3.20L53.12-3.56L54.04-6.20Q54.92-8.24 55.08-8.78Q55.24-9.32 55.04-9.28L55.04-9.28Q54.68-9.24 54.04-8.90Q53.40-8.56 53.24-8.24L53.24-8.24Q53.16-8.24 52.72-7.82Q52.28-7.40 51.96-7.20L51.96-7.20Q51.60-6.68 50.20-5.32L50.20-5.32L49.24-4.40Q48.64-3.92 47.56-2.44L47.56-2.44Q47-1.72 46.92-1.72L46.92-1.72Q45.68-1.72 45.36-2.92L45.36-2.92Q45.20-3.20 45.20-3.68L45.20-3.68Q45.20-4.32 45.68-6.32L45.68-6.32Q46.04-7.68 46.08-8L46.08-8L46.28-8.80Q46.36-9.32 46.64-10.04Q46.92-10.76 47.60-12.32L47.60-12.32Q48-13.44 48-14L48-14Q48-14.52 48.36-14.82Q48.72-15.12 49.16-15.12L49.16-15.12Q49.72-15.12 50.12-14.68Q50.52-14.24 50.52-13.52L50.52-13.52Q50.52-12.84 50.20-12.12L50.20-12.12L49.76-11.04Q49.44-10.40 48.94-8.98Q48.44-7.56 48.44-7.40L48.44-7.40Q48.48-7.28 48.72-7.46Q48.96-7.64 49.28-7.92L49.28-7.92Q49.64-8.28 50.12-8.64L50.12-8.64Q51.32-9.76 52.98-10.80Q54.64-11.84 55.52-12.12L55.52-12.12Q56.04-12.12 56.30-11.98Q56.56-11.84 56.88-11.50Q57.20-11.16 57.36-11L57.36-11Q57.72-10.64 57.72-9.96L57.72-9.96Q57.72-9.76 57.64-9.44L57.64-9.44Q57.48-8.88 57.22-8.08Q56.96-7.28 56.84-6.92L56.84-6.92Q57.12-7.16 57.84-7.76Q58.56-8.36 59.16-8.88L59.16-8.88Q61.16-10.44 62.32-10.44L62.32-10.44Q63.16-10.44 63.76-9.56L63.76-9.56Q64.12-9.20 64.20-8.82Q64.28-8.44 64.28-7.80Q64.28-7.16 64.28-6.80L64.28-6.80Q64.32-6.52 64.32-5.84L64.32-5.84Q64.36-5.52 64.42-4.60Q64.48-3.68 64.60-3.56L64.60-3.56Q64.80-3.32 65.96-3.12L65.96-3.12Q66.68-3 66.68-2.48L66.68-2.48Q66.68-2.12 66.16-1.76L66.16-1.76Q65.64-1.44 64.88-1.44L64.88-1.44Q64.16-1.44 63.56-1.68L63.56-1.68Z M71.08-0.28Q70.44-0.40 69.78-1.14Q69.12-1.88 68.92-2.52L68.92-2.52Q68.92-2.60 68.84-2.70Q68.76-2.80 68.72-2.84L68.72-2.84Q68.56-2.96 68.56-4.16L68.56-4.16Q68.56-5.12 68.66-6.16Q68.76-7.20 68.92-7.84L68.92-7.84L69.64-9.96L70.20-11.56L71.28-13.88L69.68-14.32Q69.40-14.36 69.22-14.60Q69.04-14.84 69.04-15.04L69.04-15.04Q69.04-15.36 69.38-15.82Q69.72-16.28 69.92-16.28L69.92-16.28Q70.04-16.24 70.56-16.24L70.56-16.24Q71.76-16.24 72.36-16.36L72.36-16.36Q72.76-16.52 72.92-17L72.92-17Q73.08-17.32 73.30-17.80Q73.52-18.28 73.72-18.68L73.72-18.68Q73.84-18.92 74.10-19.42Q74.36-19.92 74.76-20.56L74.76-20.56Q74.84-20.68 75.12-21.14Q75.40-21.60 75.80-21.92L75.80-21.92Q76.08-22.20 76.48-22.20L76.48-22.20Q76.88-22.20 77.52-21.68L77.52-21.68Q77.60-21.56 77.74-21.36Q77.88-21.16 77.88-21L77.88-21Q77.88-20.84 77.56-20.32L77.56-20.32Q77.32-19.84 77.10-19.46Q76.88-19.08 76.72-18.80L76.72-18.80Q76.24-18 76.04-17.60L76.04-17.60Q75.64-17.08 75.64-16.80L75.64-16.80Q75.64-16.52 76.16-16.52L76.16-16.52Q76.72-16.52 78.04-16.76L78.04-16.76Q78.60-16.84 78.80-16.84L78.80-16.84Q80.20-16.84 80.32-15.68L80.32-15.68Q80.36-15.44 80.36-15.12L80.36-15.12Q80.36-14.56 79.98-14.44Q79.60-14.32 78.28-14.32L78.28-14.32Q77-14.12 75.64-14.12L75.64-14.12Q75.40-14.12 75.10-14.10Q74.80-14.08 74.48-14L74.48-14Q74.16-13.92 74.02-13.76Q73.88-13.60 73.72-13.24L73.72-13.24Q73.60-13.12 73.16-12.32L73.16-12.32Q72.60-11.16 72.44-10.92L72.44-10.92Q71.36-7.72 70.84-4.36L70.84-4.36Q70.76-3.72 70.76-3.56L70.76-3.56Q70.76-2.96 71.16-2.72Q71.56-2.48 72.52-2.48L72.52-2.48Q73.88-2.48 74.88-2.76L74.88-2.76Q76.08-3.28 76.68-3.64L76.68-3.64Q77.04-3.84 77.34-4.02Q77.64-4.20 77.76-4.28L77.76-4.28Q77.88-4.52 78.04-4.52L78.04-4.52Q78.36-4.52 78.60-3.88L78.60-3.88Q78.60-3.24 78.32-2.76Q78.04-2.28 76.92-1.64L76.92-1.64Q74.60-0.16 72.28-0.16L72.28-0.16Q71.64-0.16 71.08-0.28L71.08-0.28Z M81.92-1.40Q81.60-1.64 81.48-1.84Q81.36-2.04 81.36-2.44L81.36-2.44Q81.36-2.80 81.40-3.04L81.40-3.04Q81.52-4.40 82-6.20L82-6.20L82.20-7Q82.32-8 83.60-11.20Q84.88-14.40 85.68-15.56L85.68-15.56Q86-15.76 86.36-15.76L86.36-15.76Q86.88-15.76 87.24-15.40L87.24-15.40Q87.48-15.24 87.48-14.80L87.48-14.80Q87.48-14.40 87.18-13.62Q86.88-12.84 86.16-11.32L86.16-11.32Q86-11 85.62-10.12Q85.24-9.24 85.24-9.08L85.24-9.08Q85.24-9 85.28-9L85.28-9Q85.36-9 85.44-9.06Q85.52-9.12 85.60-9.16L85.60-9.16Q86.04-9.92 87.74-11.24Q89.44-12.56 90.08-12.88L90.08-12.88Q90.36-13.04 90.80-13.20Q91.24-13.36 91.40-13.44L91.40-13.44Q92.04-13.76 92.92-13.76L92.92-13.76Q93.48-13.76 93.90-13.58Q94.32-13.40 94.48-13.04L94.48-13.04Q94.52-12.76 94.70-12.60Q94.88-12.44 94.96-12.40L94.96-12.40Q95.08-12.40 95.12-12.30Q95.16-12.20 95.16-12.16L95.16-12.16Q95.16-11.88 94.84-11.82Q94.52-11.76 93.68-11.72L93.68-11.72Q93.24-11.68 92.76-11.52Q92.28-11.36 91.80-11.12L91.80-11.12Q89.56-9.84 88.46-9.12Q87.36-8.40 86.24-7.16L86.24-7.16Q85.80-6.68 85.08-5.44L85.08-5.44Q84.80-5.16 84.50-3.98Q84.20-2.80 84.20-2.52L84.20-2.52Q84.16-2.40 84.04-2.06Q83.92-1.72 83.68-1.40L83.68-1.40Q83.20-0.76 82.88-0.76L82.88-0.76Q82.52-0.76 81.92-1.40L81.92-1.40Z M102.60-1.40Q101.60-0.52 100.20-0.52L100.20-0.52Q99.20-0.52 98.30-1Q97.40-1.48 96.80-2.32L96.80-2.32Q96.28-2.96 96.04-3.76Q95.80-4.56 95.80-5.72L95.80-5.72Q95.80-6.12 95.88-7.32L95.88-7.32Q96-8.80 96.86-10.40Q97.72-12 99-13.26Q100.28-14.52 101.52-15L101.52-15Q102.16-15.40 102.68-15.40L102.68-15.40Q102.96-15.40 103.24-15.36Q103.52-15.32 103.84-15.28L103.84-15.28Q104.72-15.16 105.18-14.94Q105.64-14.72 105.96-14.28L105.96-14.28Q106.96-13.28 106.96-11.96L106.96-11.96Q106.80-11 105.72-9.76Q104.64-8.52 103.12-7.76L103.12-7.76Q102.40-7.52 101.48-7.52L101.48-7.52Q100.24-7.52 99.48-8.04L99.48-8.04Q99.12-8.16 98.92-8.16L98.92-8.16Q98.56-8.16 98.38-7.68Q98.20-7.20 98.04-5.92L98.04-5.92Q98-5.64 98-5.12L98-5.12Q98-3.08 99.36-2.88L99.36-2.88Q100.28-2.68 100.68-2.68L100.68-2.68Q101.16-2.68 101.76-3L101.76-3L102.52-3.44Q102.76-3.56 102.96-3.76Q103.16-3.96 103.32-4.12L103.32-4.12Q103.40-4.20 103.56-4.38Q103.72-4.56 103.86-4.62Q104-4.68 104.12-4.68L104.12-4.68Q104.28-4.68 104.48-4.50Q104.68-4.32 104.80-4.24L104.80-4.24Q105.16-4.24 104.96-3.74Q104.76-3.24 104.10-2.58Q103.44-1.92 102.60-1.40L102.60-1.40ZM102.56-9.88Q103.24-10.16 103.94-10.88Q104.64-11.60 104.64-12.08L104.64-12.08Q104.64-12.56 104.28-12.88Q103.92-13.20 103.28-13.20L103.28-13.20Q102.80-13.20 102.56-13.12L102.56-13.12Q102-12.96 101.24-12.26Q100.48-11.56 99.92-10.84Q99.36-10.12 99.48-10L99.48-10Q99.68-9.64 101.04-9.64L101.04-9.64Q101.96-9.64 102.56-9.88L102.56-9.88Z M115.60-1.40Q114.60-0.52 113.20-0.52L113.20-0.52Q112.20-0.52 111.30-1Q110.40-1.48 109.80-2.32L109.80-2.32Q109.28-2.96 109.04-3.76Q108.80-4.56 108.80-5.72L108.80-5.72Q108.80-6.12 108.88-7.32L108.88-7.32Q109-8.80 109.86-10.40Q110.72-12 112-13.26Q113.28-14.52 114.52-15L114.52-15Q115.16-15.40 115.68-15.40L115.68-15.40Q115.96-15.40 116.24-15.36Q116.52-15.32 116.84-15.28L116.84-15.28Q117.72-15.16 118.18-14.94Q118.64-14.72 118.96-14.28L118.96-14.28Q119.96-13.28 119.96-11.96L119.96-11.96Q119.80-11 118.72-9.76Q117.64-8.52 116.12-7.76L116.12-7.76Q115.40-7.52 114.48-7.52L114.48-7.52Q113.24-7.52 112.48-8.04L112.48-8.04Q112.12-8.16 111.92-8.16L111.92-8.16Q111.56-8.16 111.38-7.68Q111.20-7.20 111.04-5.92L111.04-5.92Q111-5.64 111-5.12L111-5.12Q111-3.08 112.36-2.88L112.36-2.88Q113.28-2.68 113.68-2.68L113.68-2.68Q114.16-2.68 114.76-3L114.76-3L115.52-3.44Q115.76-3.56 115.96-3.76Q116.16-3.96 116.32-4.12L116.32-4.12Q116.40-4.20 116.56-4.38Q116.72-4.56 116.86-4.62Q117-4.68 117.12-4.68L117.12-4.68Q117.28-4.68 117.48-4.50Q117.68-4.32 117.80-4.24L117.80-4.24Q118.16-4.24 117.96-3.74Q117.76-3.24 117.10-2.58Q116.44-1.92 115.60-1.40L115.60-1.40ZM115.56-9.88Q116.24-10.16 116.94-10.88Q117.64-11.60 117.64-12.08L117.64-12.08Q117.64-12.56 117.28-12.88Q116.92-13.20 116.28-13.20L116.28-13.20Q115.80-13.20 115.56-13.12L115.56-13.12Q115-12.96 114.24-12.26Q113.48-11.56 112.92-10.84Q112.36-10.12 112.48-10L112.48-10Q112.68-9.64 114.04-9.64L114.04-9.64Q114.96-9.64 115.56-9.88L115.56-9.88Z M151.80 3.32Q151.72 3.28 151.48 3.20Q151.24 3.12 150.96 3.12L150.96 3.12Q150.48 3 150.18 2.60Q149.88 2.20 149.88 1.68L149.88 1.68Q149.88 1.40 149.92 1.24L149.92 1.24Q150.04 1.12 150.14 0.62Q150.24 0.12 150.24-0.28L150.24-0.28Q150.36-0.52 150.44-0.78Q150.52-1.04 150.64-1.52L150.64-1.52Q150.96-3.28 152.12-7.44Q153.28-11.60 153.56-11.88L153.56-11.88L153.56-12.32Q153.56-12.44 153.64-12.80Q153.72-13.16 154.00-13.56L154.00-13.56Q154.16-14.04 154.26-14.50Q154.36-14.96 154.40-15.20L154.40-15.20Q154.56-15.40 154.94-16.40Q155.32-17.40 155.44-17.72L155.44-17.72Q155.72-18.48 156.14-19.50Q156.56-20.52 156.72-20.84L156.72-20.84L156.72-21.04Q156.80-21.12 157.14-21.86Q157.48-22.60 157.72-23.12L157.72-23.12Q158.00-23.76 159.20-26.44L159.20-26.44Q159.32-26.72 159.58-27.14Q159.84-27.56 159.84-27.72L159.84-27.72Q160.00-28 160.40-28L160.40-28Q160.76-28 161.14-27.74Q161.52-27.48 161.72-27.08L161.72-27.08L162.12-26.44L160.68-23.56Q160.08-22.52 159.64-21.56Q159.20-20.60 159.20-20.44L159.20-20.44Q159.04-20.04 158.58-18.80Q158.12-17.56 157.84-16.68L157.84-16.68Q157.64-16.08 157.36-15.42Q157.08-14.76 156.96-14.48L156.96-14.48Q156.64-13.76 156.64-13.68L156.64-13.68Q156.64-13.84 161.44-13.84L161.44-13.84Q162.20-13.84 164.14-13.88Q166.08-13.92 166.56-14L166.56-14L168.64-14.20L170.00-18.32Q170.40-19.72 171.76-23.76L171.76-23.76Q172.36-25.48 172.72-25.98Q173.08-26.48 173.60-26.48L173.60-26.48Q173.80-26.48 174.18-26.30Q174.56-26.12 174.68-25.84L174.68-25.84Q175.12-25.40 175.12-24.92L175.12-24.92Q175.12-24.36 174.48-23.36L174.48-23.36Q174.00-22.52 173.12-20.20L173.12-20.20Q172.76-19.12 172.68-18.96L172.68-18.96Q172.68-18.12 172.28-17.72L172.28-17.72Q172.12-17.56 171.72-16.58Q171.32-15.60 171.32-15.44L171.32-15.44Q171.32-15.12 171.20-14.74Q171.08-14.36 170.92-14.20L170.92-14.20L170.64-13.24Q169.24-8.16 168.44-6.20L168.44-6.20Q168.44-6 168.24-5.48Q168.04-4.96 168.04-4.76L168.04-4.76Q167.96-4.48 167.68-3.64Q167.40-2.80 167.40-2.64L167.40-2.64Q167.32-2.20 167.08-1.24L167.08-1.24Q166.48 1.48 166.48 1.72L166.48 1.72Q166.40 1.80 166.24 1.80L166.24 1.80Q166.08 1.80 165.74 1.68Q165.40 1.56 165.24 1.48L165.24 1.48Q164.28 0.96 164.28 0.28L164.28 0.28Q164.28-0.16 164.64-0.88L164.64-0.88Q164.76-1.08 165.40-3.48L165.40-3.48L165.76-4.96Q166.00-5.60 166.84-8.76L166.84-8.76Q167.52-11.20 167.60-11.28L167.60-11.28L167.60-11.68Q167.48-11.88 164.68-11.88L164.68-11.88Q161.52-11.88 158.88-11.56L158.88-11.56L157.00-11.56L155.96-11.56Q155.76-11.12 154.74-7.86Q153.72-4.60 153.60-3.76L153.60-3.76Q153.32-2.44 152.72-0.10Q152.12 2.24 151.80 3.32L151.80 3.32Z M175.92-0.60Q175.44-0.60 175.16-0.76Q174.88-0.92 174.36-1.36L174.36-1.36Q173.04-2.76 173.04-3.92L173.04-3.92Q173.04-4.20 173.08-4.32L173.08-4.32Q173.20-4.60 173.18-4.88Q173.16-5.16 173.16-5.24L173.16-5.24Q173.00-5.40 173.00-5.46Q173.00-5.52 173.08-5.58Q173.16-5.64 173.20-5.72L173.20-5.72Q173.44-5.72 173.36-6.16L173.36-6.16Q173.28-6.48 173.68-7.58Q174.08-8.68 174.68-9.60L174.68-9.60Q175.12-10.32 175.98-11.40Q176.84-12.48 177.52-13.04L177.52-13.04Q178.48-13.88 179.24-14.28Q180.00-14.68 180.92-14.88L180.92-14.88Q181.72-15.08 182.00-15.08L182.00-15.08Q182.28-15.08 182.50-14.94Q182.72-14.80 183.08-14.44L183.08-14.44Q184.16-13.96 184.58-13.22Q185.00-12.48 185.00-10.92L185.00-10.92Q185.00-8.32 182.88-5.28L182.88-5.28Q181.96-3.96 181.16-3.26Q180.36-2.56 179.04-1.76L179.04-1.76Q178.20-1.16 177.50-0.90Q176.80-0.64 175.92-0.60L175.92-0.60ZM179.76-4.84Q180.72-5.92 181.30-6.88Q181.88-7.84 182.40-9.32L182.40-9.32Q182.60-10 182.60-10.96L182.60-10.96Q182.60-12.16 182.28-12.32L182.28-12.32Q181.88-12.52 181.48-12.52L181.48-12.52Q180.60-12.52 179.64-11.72L179.64-11.72Q178.48-10.72 177.56-9.26Q176.64-7.80 175.68-5.64L175.68-5.64Q175.28-4.80 175.28-4L175.28-4Q175.28-3.40 175.58-3.04Q175.88-2.68 176.40-2.68L176.40-2.68Q177.72-2.68 179.76-4.84L179.76-4.84Z M188.48 0Q188.36 0.04 188.08 0.04L188.08 0.04Q187.44 0.04 187.08-0.60Q186.72-1.24 186.72-2.36L186.72-2.36Q186.72-3.28 186.96-4.48L186.96-4.48Q187.40-5.64 187.40-6.16L187.40-6.16Q187.52-6.92 188.22-8.90Q188.92-10.88 189.12-11.28L189.12-11.28Q189.28-11.28 189.40-11.54Q189.52-11.80 189.52-12.12L189.52-12.12Q189.52-12.48 189.66-12.86Q189.80-13.24 189.96-13.40L189.96-13.40Q189.96-13.52 190.06-13.84Q190.16-14.16 190.16-14.28L190.16-14.28Q190.16-14.36 190.26-14.58Q190.36-14.80 190.36-14.92L190.36-14.92Q191.00-16.16 192.60-20.50Q194.20-24.84 194.20-25.32L194.20-25.32Q194.20-25.96 194.84-25.96L194.84-25.96Q195.04-26.16 195.48-26.16L195.48-26.16L196.12-25.52Q196.40-25.24 196.48-24.94Q196.56-24.64 196.56-24.04L196.56-24.04Q196.56-23.44 196.40-23Q196.24-22.56 195.60-21.20L195.60-21.20Q195.48-20.92 195.28-20.54Q195.08-20.16 194.84-19.60L194.84-19.60Q194.76-19.40 194.20-18.16L194.20-18.16Q193.80-17.36 193.80-17.24L193.80-17.24Q193.80-17.12 193.64-16.74Q193.48-16.36 193.36-15.96L193.36-15.96Q193.04-15.32 192.34-13.70Q191.64-12.08 191.64-11.92L191.64-11.92Q191.64-11.48 191.44-11.28L191.44-11.28Q191.32-11.28 191.28-11.10Q191.24-10.92 191.24-10.84L191.24-10.84Q191.24-10.44 190.60-8.72L190.60-8.72L190.24-7.56Q189.48-4.96 189.18-3.76Q188.88-2.56 188.88-1.72L188.88-1.72Q188.88-0.72 188.82-0.44Q188.76-0.16 188.48 0L188.48 0Z M198.36-17.52Q198.08-17.80 197.88-18.48Q197.68-19.16 197.88-19.16L197.88-19.16Q198.20-19.20 198.62-19.86Q199.04-20.52 199.00-20.96L199.00-20.96Q199.00-21.12 199.12-21.26Q199.24-21.40 199.40-21.44L199.40-21.44Q199.72-21.64 199.96-21.64L199.96-21.64Q200.64-21.64 201.20-20.68L201.20-20.68Q201.44-20.16 201.44-19.76L201.44-19.76Q201.44-19.40 201.24-19.02Q201.04-18.64 200.52-18.04L200.52-18.04Q199.84-17.12 199.24-17.12L199.24-17.12Q198.84-17.12 198.36-17.52L198.36-17.52ZM194.48-1.28Q193.92-1.84 193.92-2.88L193.92-2.88Q193.92-3.44 194.12-3.84L194.12-3.84Q194.12-4.04 194.20-4.32Q194.28-4.60 194.28-4.68L194.28-4.68Q194.24-4.92 194.60-6L194.60-6Q195.32-7.60 196.52-11.64L196.52-11.64Q196.52-11.84 196.68-11.98Q196.84-12.12 197.16-12.16L197.16-12.16Q197.48-12.24 197.60-12.24L197.60-12.24Q197.84-12.24 198.02-12.06Q198.20-11.88 198.52-11.40L198.52-11.40Q198.76-11.16 198.76-10.68L198.76-10.68Q198.76-9.92 198.24-8.84L198.24-8.84Q197.72-7.68 197.56-6.84L197.56-6.84Q197.08-5.76 196.80-4.84L196.80-4.84Q196.72-4.60 196.56-3.88Q196.40-3.16 196.12-2.72L196.12-2.72Q195.88-1.60 195.68-1.16Q195.48-0.72 195.24-0.72L195.24-0.72Q194.96-0.72 194.48-1.28L194.48-1.28Z M212 0.76Q211 1 210.64-0.12L210.64-0.12Q210.08-1.68 210.08-3.40L210.08-3.40Q210.08-3.88 210.12-4.08L210.12-4.08L210.20-4.92L208.64-3.68Q207.36-2.56 206.10-2Q204.84-1.44 203.80-1.44L203.80-1.44Q203.12-1.56 202.50-2.02Q201.88-2.48 201.60-3.12L201.60-3.12Q201.44-3.44 201.44-4.08L201.44-4.08Q201.44-5.56 202.24-7.58Q203.04-9.60 204.24-10.92L204.24-10.92Q205.96-13.52 208.08-13.52L208.08-13.52Q209.08-13.52 210.08-12.92L210.08-12.92Q211.08-12.52 211.24-12.52L211.24-12.52Q211.48-12.52 211.60-12.72Q211.72-12.92 211.84-13.44L211.84-13.44Q212.28-15.28 212.68-16.52L212.68-16.52Q213.56-19.16 214.20-20.76Q214.84-22.36 215.76-24.28L215.76-24.28Q216.16-25.12 216.46-25.38Q216.76-25.64 217.12-25.60L217.12-25.60Q218-25.60 218.48-24.40L218.48-24.40Q218.60-24.12 218.60-23.84L218.60-23.84Q218.60-23.56 218.36-23.08L218.36-23.08Q217.32-21.28 215.80-17.20Q214.28-13.12 213.44-10.12L213.44-10.12Q213.08-8.80 212.82-6.32Q212.56-3.84 212.56-2.20L212.56-2.20Q212.56-1.48 212.64-1.16L212.64-1.16Q212.84-0.48 212.84 0.04L212.84 0.04Q212.84 0.44 212.64 0.58Q212.44 0.72 212 0.76L212 0.76ZM205.24-3.68Q206.16-3.88 207.48-4.88L207.48-4.88Q207.72-5.04 208.64-5.72Q209.56-6.40 210.04-7.16Q210.52-7.92 210.72-8.88L210.72-8.88Q210.76-9.60 210.58-10.06Q210.40-10.52 209.88-10.96L209.88-10.96Q209.48-11.24 208.88-11.24L208.88-11.24Q207.80-11.24 206.88-10.36L206.88-10.36Q205.80-9.40 204.96-7.88Q204.12-6.36 203.68-4.36L203.68-4.36Q203.56-3.60 204.48-3.60L204.48-3.60Q204.96-3.60 205.24-3.68L205.24-3.68Z M217.52-1.44Q217.40-1.68 217.14-1.94Q216.88-2.20 216.88-2.28L216.88-2.28Q216.88-2.72 216.68-2.96L216.68-2.96Q216.60-3.04 216.60-3.32L216.60-3.32Q216.60-3.96 217.22-5.50Q217.84-7.04 218.84-8.84L218.84-8.84Q219.08-9.08 219.46-9.68Q219.84-10.28 219.96-10.36L219.96-10.36Q219.96-10.52 220.08-10.66Q220.20-10.80 220.36-10.80L220.36-10.80L220.36-11.04Q220.36-11.40 221.68-12.78Q223-14.16 223.84-14.68L223.84-14.68Q224.84-15.36 225.88-15.36L225.88-15.36Q226.60-15.36 227.12-14.96L227.12-14.96Q227.32-14.72 228.96-13.24L228.96-13.24L230.44-11.92L229.72-9.92Q229.36-8.84 229.36-7.96L229.36-7.96Q229.36-6.44 230.24-5.04L230.24-5.04Q230.44-4.60 231.04-4.20Q231.64-3.80 232.24-3.72L232.24-3.72Q233.12-3.56 233.12-2.84L233.12-2.84Q233.12-2.04 232.40-1.88L232.40-1.88Q232.24-1.84 231.92-1.84L231.92-1.84Q229.56-1.84 227.84-5.16L227.84-5.16Q227.68-5.40 227.42-6.04Q227.16-6.68 227.12-6.92L227.12-6.92Q226.88-6.60 226.52-6.16Q226.16-5.72 225.84-5.40L225.84-5.40Q221.48-1.04 218.96-1.04L218.96-1.04Q218.16-1.04 217.52-1.44L217.52-1.44ZM218.96-3.68Q218.96-3.48 219.38-3.56Q219.80-3.64 220.42-3.96Q221.04-4.28 221.68-4.80L221.68-4.80Q225.12-7.76 226.64-9.96L226.64-9.96L227.52-11.40Q227.12-12.24 226.68-12.62Q226.24-13 225.88-13L225.88-13Q225.04-13 223.24-10.90Q221.44-8.80 219.96-5.96L219.96-5.96Q219.60-5.28 219.32-4.58Q219.04-3.88 218.96-3.68L218.96-3.68Z M245.60-14.76Q246.24-14.12 246.24-13.44L246.24-13.44Q246.24-12.72 245.28-10.92L245.28-10.92Q244.96-10 244.58-9.20Q244.20-8.40 244-8.16L244-8.16L243.08-6.04Q242.48-4.72 241.60-2.96L241.60-2.96Q240.52-0.72 240.08 0.36L240.08 0.36L239.56 1.20Q237.56 4.40 236.48 5.68L236.48 5.68Q234.28 7.64 233.08 7.96L233.08 7.96Q232.56 8.12 231.84 8.12L231.84 8.12Q230.52 8.12 229.34 7.54Q228.16 6.96 228 6.20L228 6.20Q227.96 5.92 228.20 5.60Q228.44 5.28 228.72 5.28L228.72 5.28Q228.92 5.28 229.04 5.44L229.04 5.44Q229.36 5.68 229.98 5.90Q230.60 6.12 231.32 6.12L231.32 6.12Q231.60 6.12 232.08 6.04L232.08 6.04Q232.88 5.88 233.76 5.08Q234.64 4.28 235.36 3.32L235.36 3.32Q236.72 1.32 238.28-1.68L238.28-1.68Q237.72-1.84 237.20-2.46Q236.68-3.08 236.38-3.76Q236.08-4.44 236.16-4.76L236.16-4.76L236.16-5.20Q235.80-5.20 235.58-6.56Q235.36-7.92 235.36-9.72L235.36-9.72Q235.36-10.40 235.44-11.44L235.44-11.44Q235.60-12.08 235.62-13.02Q235.64-13.96 235.64-14.24L235.64-14.24L235.64-14.40Q235.64-14.88 235.74-15.08Q235.84-15.28 236.08-15.44L236.08-15.44Q236.40-15.60 236.72-15.60L236.72-15.60Q237.84-15.60 237.84-12.64L237.84-12.64Q237.84-12.20 237.76-10.92L237.76-10.92Q237.72-10.36 237.72-9.24L237.72-9.24Q237.72-7.16 238.08-5.56Q238.44-3.96 239.16-3.36L239.16-3.36L239.40-3.92Q239.84-5.08 240.08-5.40L240.08-5.40Q240.64-6.56 240.72-6.88L240.72-6.88Q240.80-7.16 241.16-7.80L241.16-7.80L241.68-8.88Q241.76-9.12 242.20-10.42Q242.64-11.72 243.08-12.52L243.08-12.52Q243.24-12.84 243.56-13.46Q243.88-14.08 244.08-14.36Q244.28-14.64 244.52-14.72L244.52-14.72Q244.84-15 245.04-15L245.04-15Q245.20-15 245.60-14.76L245.60-14.76Z M250 0.16Q249.28-0.12 248.60-0.66Q247.92-1.20 247.68-1.60L247.68-1.60Q247.68-1.68 247.68-1.88Q247.68-2.08 247.80-2.14Q247.92-2.20 248.24-2.20L248.24-2.20Q248.92-2.20 250.40-2.04L250.40-2.04Q251.28-2.04 252.40-2.26Q253.52-2.48 253.64-2.76L253.64-2.76Q253.76-2.76 253.76-2.80L253.76-2.80Q253.76-2.88 253.44-3.20L253.44-3.20Q253.36-3.20 253.08-3.34Q252.80-3.48 252.72-3.48L252.72-3.48Q252.72-3.64 252.36-3.90Q252-4.16 251.56-4.36L251.56-4.36Q250.40-5.32 249.92-5.78Q249.44-6.24 249.56-6.44L249.56-6.44L249.56-6.64Q249.28-6.64 248.94-7.42Q248.60-8.20 248.60-8.88L248.60-8.88Q248.60-9.60 249.22-10.88Q249.84-12.16 250.64-12.96L250.64-12.96Q251.76-14 253.54-15.16Q255.32-16.32 256.36-16.64L256.36-16.64Q257.04-16.92 257.72-16.92L257.72-16.92Q258.36-16.92 258.80-16.64L258.80-16.64Q259.32-16.32 259.82-15.72Q260.32-15.12 260.48-14.64L260.48-14.64Q260.48-13.76 260.30-12.94Q260.12-12.12 259.76-12.12L259.76-12.12Q259.72-12.12 259.64-12.08Q259.56-12.04 259.56-11.88L259.56-11.88Q259.56-11.72 259.40-11.46Q259.24-11.20 258.96-10.96L258.96-10.96Q258.08-10.32 257.52-10.32L257.52-10.32Q257.08-10.32 256.96-10.76L256.96-10.76Q256.88-10.84 256.80-11Q256.72-11.16 256.60-11.16L256.60-11.16Q256.56-11.16 256.46-11.30Q256.36-11.44 256.36-11.68L256.36-11.68Q256.36-11.80 256.46-11.94Q256.56-12.08 256.60-12.12L256.60-12.12Q256.84-12.12 257.40-13.06Q257.96-14 257.96-14.32L257.96-14.32Q257.96-14.56 257.90-14.60Q257.84-14.64 257.52-14.64L257.52-14.64Q254.40-13.24 253.64-12.52L253.64-12.52Q253.52-12.28 253.46-12.20Q253.40-12.12 253.24-12.12L253.24-12.12Q253.24-12.48 251.12-9.40L251.12-9.40Q251.04-9.32 250.94-8.92Q250.84-8.52 250.84-8.24L250.84-8.24Q250.76-7.92 250.76-7.88L250.76-7.88Q250.76-7.72 250.90-7.56Q251.04-7.40 251.28-7.22Q251.52-7.04 251.76-6.84L251.76-6.84Q253.84-5.28 254.66-4.50Q255.48-3.72 255.64-3.20L255.64-3.20Q256.16-2.40 256.16-1.76L256.16-1.76Q256.16-1.28 255.80-0.92Q255.44-0.56 254.72-0.24L254.72-0.24Q254.28-0.04 253.24 0.10Q252.20 0.24 251.20 0.24L251.20 0.24Q250.64 0.24 250 0.16L250 0.16Z"/></g>
</svg>
</g></svg>